<?xml version="1.0" encoding="UTF-8" standalone="no"?>
<svg
   width="67.423mm"
   height="39.507mm"
   version="1.1"
   viewBox="-14 -14 67.423 39.507"
   id="svg28"
   sodipodi:docname="gpu.svg"
   inkscape:version="1.3.2 (091e20e, 2023-11-25)"
   xmlns:inkscape="http://www.inkscape.org/namespaces/inkscape"
   xmlns:sodipodi="http://sodipodi.sourceforge.net/DTD/sodipodi-0.dtd"
   xmlns:xlink="http://www.w3.org/1999/xlink"
   xmlns="http://www.w3.org/2000/svg"
   xmlns:svg="http://www.w3.org/2000/svg">
  <sodipodi:namedview
     id="namedview28"
     pagecolor="#ffffff"
     bordercolor="#666666"
     borderopacity="1.0"
     inkscape:showpageshadow="2"
     inkscape:pageopacity="0.0"
     inkscape:pagecheckerboard="0"
     inkscape:deskcolor="#d1d1d1"
     inkscape:document-units="mm"
     inkscape:zoom="2.6778386"
     inkscape:cx="23.899872"
     inkscape:cy="129.20869"
     inkscape:window-width="2558"
     inkscape:window-height="1571"
     inkscape:window-x="0"
     inkscape:window-y="27"
     inkscape:window-maximized="1"
     inkscape:current-layer="svg28" />
  <g
     id="g3">
    <path
       d="m-11.525 24.768v-1.5479l-0.27133-4.5512h-0.22894v0.79743l-0.75572 0.20249v-1.6157l-0.24365-0.24365v3.034l-0.36965 0.36966v1.9319l0.27459 0.47561v1.8856h0.22894c0.26728-0.63085 0.22394-2.5566 0.98061-2.5566l0.15622 0.27058v1.5479z"
       fill="#666"
       id="path1" />
    <path
       d="m-10.976 24.477v-1.7934l0.32206-0.18594v-3.8282h-1.143v0.79743l-0.75572 0.20249v-1.4078l-0.24365-0.20161v2.784l-0.36965 0.36966v1.9319l0.27459 0.47561v1.8856l0.65389-0.37753v-1.6132l0.32672-0.56589h0.22894l0.15622 0.27058v1.5479z"
       fill="url(#linearGradient6280)"
       id="path2" />
    <path
       d="m-11.973-14-1.3637 1.3637v5.7852l0.5457 0.94568v16.292l-1.2087 0.69763v6.0353l1.9746 1.558 1.7038 0.01291-0.0057 0.77618c0.04317 0.20878 0.21932 0.48642 0.72657 0.73587l2.5905-0.0016-0.0098-1.5265 4.1558-0.0011v1.4335h1.8361v-1.4046h0.84078v1.2303h2.5079v-0.67939h0.49299v0.67696h16.147v-0.72864h0.6413v1.2439h2.5089l0.30954-0.53588v-0.49189h-1.0588l-0.34882-0.34882v-0.44493l0.41031-0.41031h30.829l1.1715-1.1862v-29.479l-1.4785-1.5478zm3.2375 33.027c0.24229 3.9e-5 0.4387 0.19644 0.43873 0.43874-3.9e-5 0.24229-0.19644 0.43869-0.43873 0.43873-0.24229-3.9e-5 -0.43869-0.19644-0.43873-0.43873 3.8e-5 -0.24229 0.19644-0.4387 0.43873-0.43874z"
       fill="#1a1a1a"
       id="path3" />
    <ellipse
       cx="36.126"
       cy="2.2413"
       rx="13.926"
       ry="14.159"
       fill="url(#linearGradient8675)"
       fill-rule="evenodd"
       stop-color="#000000"
       stroke="#000"
       stroke-miterlimit="3.9"
       stroke-width=".32465"
       style="-inkscape-stroke:none;font-variation-settings:normal;paint-order:stroke fill markers"
       id="ellipse3" />
  </g>
  <defs
     id="defs12">
    <linearGradient
       id="linearGradient9686">
      <stop
         stop-color="#f6d583"
         offset="0"
         id="stop3" />
      <stop
         stop-color="#f6d583"
         offset=".53927"
         id="stop4" />
      <stop
         stop-color="#d49800"
         stop-opacity=".99608"
         offset=".92144"
         id="stop5" />
      <stop
         stop-color="#d49800"
         stop-opacity=".99628"
         offset="1"
         id="stop6" />
    </linearGradient>
    <linearGradient
       id="linearGradient5554">
      <stop
         stop-color="#f25c05"
         offset="0"
         id="stop7" />
      <stop
         stop-color="#fdb913"
         offset="1"
         id="stop8" />
    </linearGradient>
    <linearGradient
       id="linearGradient12177"
       x1="-26.552"
       x2="-26.431"
       y1="18.405"
       y2="18.405"
       gradientTransform="translate(29.366 2.024)"
       gradientUnits="userSpaceOnUse"
       spreadMethod="reflect"
       xlink:href="#linearGradient9686" />
    <linearGradient
       id="linearGradient12661"
       x1="-26.552"
       x2="-26.431"
       y1="18.405"
       y2="18.405"
       gradientTransform="translate(26.419 2.064)"
       gradientUnits="userSpaceOnUse"
       spreadMethod="reflect"
       xlink:href="#linearGradient9686" />
    <radialGradient
       id="radialGradient12798"
       cx=".093952"
       cy="-.25162"
       r="13.553"
       gradientTransform="matrix(1 0 0 .99463 0 -.001352)"
       gradientUnits="userSpaceOnUse"
       xlink:href="#linearGradient5554" />
    <linearGradient
       id="linearGradient8675"
       x1="53.975"
       x2="54.396"
       y1="239.74"
       y2="239.74"
       gradientTransform="translate(-91.333 24.629)"
       gradientUnits="userSpaceOnUse"
       spreadMethod="reflect"
       xlink:href="#linearGradient8835" />
    <linearGradient
       id="linearGradient8835">
      <stop
         offset="0"
         id="stop9" />
      <stop
         stop-color="#a5a5a5"
         offset="1"
         id="stop10" />
    </linearGradient>
    <linearGradient
       id="linearGradient56617"
       x1="53.975"
       x2="54.396"
       y1="239.74"
       y2="239.74"
       gradientTransform="translate(-121.62 24.813)"
       gradientUnits="userSpaceOnUse"
       spreadMethod="reflect"
       xlink:href="#linearGradient8835" />
    <linearGradient
       id="linearGradient6280"
       x1="33.179"
       x2="35.691"
       y1="39.489"
       y2="39.489"
       gradientTransform="translate(-46.345 -17.746)"
       gradientUnits="userSpaceOnUse">
      <stop
         stop-color="#777"
         offset="0"
         id="stop11" />
      <stop
         stop-color="#dbdbdb"
         offset="1"
         id="stop12" />
    </linearGradient>
  </defs>
  <g
     id="g13">
    <rect
       x="2.8135"
       y="19.93"
       width="16.065"
       height=".99882"
       fill="url(#linearGradient12177)"
       style="paint-order:stroke fill markers"
       id="rect12" />
    <path
       d="m-8.7357 18.766a0.70008 0.70008 0 0 0-0.6997 0.70022 0.70008 0.70008 0 0 0 0.6997 0.70021 0.70008 0.70008 0 0 0 0.70022-0.70021 0.70008 0.70008 0 0 0-0.70022-0.70022zm0 0.26148a0.4388 0.4388 0 0 1 0.43873 0.43874 0.4388 0.4388 0 0 1-0.43873 0.43873 0.4388 0.4388 0 0 1-0.43873-0.43873 0.4388 0.4388 0 0 1 0.43873-0.43874z"
       fill="#e3b242"
       fill-rule="evenodd"
       stop-color="#000000"
       style="-inkscape-stroke:none;font-variation-settings:normal;paint-order:stroke fill markers"
       id="path12" />
    <rect
       x="-.19331"
       y="19.933"
       width="2.5254"
       height=".99882"
       fill="url(#linearGradient12661)"
       style="paint-order:stroke fill markers"
       id="rect13" />
    <ellipse
       cx="5.8357"
       cy="2.4254"
       rx="13.926"
       ry="14.159"
       fill="url(#linearGradient56617)"
       fill-rule="evenodd"
       stop-color="#000000"
       stroke="#000"
       stroke-miterlimit="3.9"
       stroke-width=".32465"
       style="-inkscape-stroke:none;font-variation-settings:normal;paint-order:stroke fill markers"
       id="ellipse13" />
  </g>
  <g
     transform="translate(6.0205 2.3022)"
     id="fan2">
    <g
       id="fanrotate1">
      <g
         fill="url(#radialGradient12798)"
         stroke="url(#radialGradient5556)"
         stroke-width=".13275px"
         id="blades1">
        <path
           d="m-4.0754-2.8337c-2.3684-3.0057-2.6643-5.6737-1.3641-8.8139 2.3183-1.9912 4.9386-2.4297 7.0774-1.6612-4.4168 3.0131-3.6937 6.1771-3.465 8.7131-0.71407 0.40076-1.2716 0.54323-2.2483 1.762z"
           id="path13" />
        <path
           d="m-0.32104-4.9534c0.87662-3.7249 2.7798-5.6181 6.0463-6.5565 3.0017 0.57367 4.9766 2.3507 5.7074 4.5027-5.1082-1.5791-7.1333 0.95717-8.975 2.7154-0.75826-0.30909-1.217-0.65657-2.7788-0.66166z"
           id="path14" />
        <path
           d="m3.6755-3.3361c3.4603-1.634 6.1267-1.324 8.8953 0.64731 1.4206 2.7058 1.2602 5.3577 0.03168 7.2697-1.9458-4.9801-5.1914-4.9849-7.714-5.3308-0.23041-0.78576-0.24421-1.361-1.2129-2.5862z"
           id="path15" />
        <path
           d="m4.8992 0.79803c3.4334 1.6897 4.8516 3.9689 5.0334 7.3628-1.2323 2.7966-3.4069 4.3227-5.668 4.5522 2.6845-4.6239 0.667-7.1663-0.63345-9.3554 0.47127-0.66963 0.91277-1.0387 1.268-2.5596z"
           id="path16" />
        <path
           d="m2.4268 4.3301c0.8163 3.7386-0.08376 6.2676-2.6258 8.5236-2.9554 0.77757-5.5038 0.02654-7.0916-1.5995 5.2896-0.77938 6.0222-3.9412 6.925-6.322 0.81741-0.04832 1.3811 0.06725 2.7923-0.60202z"
           id="path17" />
        <path
           d="m-1.8764 4.5954c-2.4167 2.967-4.9559 3.8379-8.3041 3.254-2.449-1.8281-3.4485-4.2896-3.1651-6.5445 3.9041 3.6532 6.8341 2.2572 9.2591 1.4808 0.54688 0.60945 0.80754 1.1225 2.21 1.8098z"
           id="path18" />
        <path
           d="m-4.764 1.3938c-3.8264-0.04295-6.0892-1.4873-7.7175-4.4705-0.09494-3.0545 1.2085-5.3696 3.1492-6.5522-0.42678 5.3297 2.4902 6.7527 4.6079 8.1665-0.13624 0.80743-0.37529 1.3309-0.03955 2.8562z"
           id="path19" />
      </g>
      <circle
         r="5"
         fill-rule="evenodd"
         stop-color="#000000"
         style="-inkscape-stroke:none;font-variation-settings:normal;paint-order:stroke fill markers"
         id="logobg1" />
      <path
         class="st1"
         d="m3.3283 0.15175 0.75312-0.16406 0.21911-0.48997-0.29178-0.070467-0.76303-0.5263-0.58136-0.95681-0.24443 0.070467-0.23452-0.68596-0.56154 0.43381 0.070467-0.39087-1.0152-0.18167 0.33362 0.29068-1.2178-0.14974 0.46685 0.32921-1.2475 0.01211 0.57805 0.29728-1.0944 0.24003 0.57034 0.14424-0.68595 0.22131-0.02092 0.0011-0.016516 0.011011-0.48666 0.15525 0.19819 0.038537-0.46464 0.3149 0.0011-0.003309-0.46574 0.29618-0.22131 0.49327-0.40188 0.2059 0.069367 0.19379 0.5208-0.14314 0.29178 0.29398 0.02092 0.83129-0.77624 1.3213h0.69256l1.0207-0.9579 1.3345-0.46905 1.3675-0.68045 1.4049 0.33472 0.27306 0.56374 0.68926-0.32701-0.33582-0.59677-0.8412-0.56814 0.15855-0.079276zm-0.48556-1.4776 0.11011 0.28077-0.4239-0.19268z"
         fill="#fdb913"
         stroke="#000"
         stroke-width=".01101"
         id="logo1" />
      <animateTransform
         attributeName="transform"
         dur="1s"
         type="rotate"
         from="0 0 0"
         to="360 0 0"
         repeatCount="indefinite" />
    </g>
  </g>
  <g
     transform="translate(35.999 2.3022)"
     id="g1">
    <g
       id="fanrotate2">
      <g
         fill="url(#radialGradient12798)"
         stroke="url(#radialGradient5556)"
         stroke-width=".13275px"
         id="blades2">
        <path
           d="m-4.0754-2.8337c-2.3684-3.0057-2.6643-5.6737-1.3641-8.8139 2.3183-1.9912 4.9386-2.4297 7.0774-1.6612-4.4168 3.0131-3.6937 6.1771-3.465 8.7131-0.71407 0.40076-1.2716 0.54323-2.2483 1.762z"
           id="path21" />
        <path
           d="m-0.32104-4.9534c0.87662-3.7249 2.7798-5.6181 6.0463-6.5565 3.0017 0.57367 4.9766 2.3507 5.7074 4.5027-5.1082-1.5791-7.1333 0.95717-8.975 2.7154-0.75826-0.30909-1.217-0.65657-2.7788-0.66166z"
           id="path22" />
        <path
           d="m3.6755-3.3361c3.4603-1.634 6.1267-1.324 8.8953 0.64731 1.4206 2.7058 1.2602 5.3577 0.03168 7.2697-1.9458-4.9801-5.1914-4.9849-7.714-5.3308-0.23041-0.78576-0.24421-1.361-1.2129-2.5862z"
           id="path23" />
        <path
           d="m4.8992 0.79803c3.4334 1.6897 4.8516 3.9689 5.0334 7.3628-1.2323 2.7966-3.4069 4.3227-5.668 4.5522 2.6845-4.6239 0.667-7.1663-0.63345-9.3554 0.47127-0.66963 0.91277-1.0387 1.268-2.5596z"
           id="path24" />
        <path
           d="m2.4268 4.3301c0.8163 3.7386-0.08376 6.2676-2.6258 8.5236-2.9554 0.77757-5.5038 0.02654-7.0916-1.5995 5.2896-0.77938 6.0222-3.9412 6.925-6.322 0.81741-0.04832 1.3811 0.06725 2.7923-0.60202z"
           id="path25" />
        <path
           d="m-1.8764 4.5954c-2.4167 2.967-4.9559 3.8379-8.3041 3.254-2.449-1.8281-3.4485-4.2896-3.1651-6.5445 3.9041 3.6532 6.8341 2.2572 9.2591 1.4808 0.54688 0.60945 0.80754 1.1225 2.21 1.8098z"
           id="path26" />
        <path
           d="m-4.764 1.3938c-3.8264-0.04295-6.0892-1.4873-7.7175-4.4705-0.09494-3.0545 1.2085-5.3696 3.1492-6.5522-0.42678 5.3297 2.4902 6.7527 4.6079 8.1665-0.13624 0.80743-0.37529 1.3309-0.03955 2.8562z"
           id="path27" />
      </g>
      <circle
         r="5"
         fill-rule="evenodd"
         stop-color="#000000"
         style="-inkscape-stroke:none;font-variation-settings:normal;paint-order:stroke fill markers"
         id="logobg2" />
      <path
         class="st1"
         d="m3.3283 0.15175 0.75312-0.16406 0.21911-0.48997-0.29178-0.070467-0.76303-0.5263-0.58136-0.95681-0.24443 0.070467-0.23452-0.68596-0.56154 0.43381 0.070467-0.39087-1.0152-0.18167 0.33362 0.29068-1.2178-0.14974 0.46685 0.32921-1.2475 0.01211 0.57805 0.29728-1.0944 0.24003 0.57034 0.14424-0.68595 0.22131-0.02092 0.0011-0.016516 0.011011-0.48666 0.15525 0.19819 0.038537-0.46464 0.3149 0.0011-0.003309-0.46574 0.29618-0.22131 0.49327-0.40188 0.2059 0.069367 0.19379 0.5208-0.14314 0.29178 0.29398 0.02092 0.83129-0.77624 1.3213h0.69256l1.0207-0.9579 1.3345-0.46905 1.3675-0.68045 1.4049 0.33472 0.27306 0.56374 0.68926-0.32701-0.33582-0.59677-0.8412-0.56814 0.15855-0.079276zm-0.48556-1.4776 0.11011 0.28077-0.4239-0.19268z"
         fill="#fdb913"
         stroke="#000"
         stroke-width=".01101"
         id="logo2" />
      <animateTransform
         attributeName="transform"
         dur="1s"
         type="rotate"
         from="0 0 0"
         to="360 0 0"
         repeatCount="indefinite" />
    </g>
  </g>
</svg>
