<svg width="26" height="30" viewBox="0 0 26 30" fill="none" xmlns="http://www.w3.org/2000/svg">
<path d="M13 30C12.92 30 12.83 29.98 12.76 29.94L10.76 28.83C10.6 28.74 10.5 28.57 10.5 28.39V25.94C10.5 25.76 10.6 25.59 10.76 25.5L12.76 24.39C12.91 24.31 13.09 24.31 13.25 24.39L15.25 25.5C15.41 25.59 15.51 25.76 15.51 25.94V28.39C15.51 28.57 15.41 28.74 15.25 28.83L13.25 29.94C13.17 29.98 13.08 30 13 30ZM11.5 28.1L13 28.93L14.5 28.1V26.24L13 25.4L11.5 26.23V28.1Z" fill="#1E1E1E"/>
<path d="M23.5 24.08C23.42 24.08 23.33 24.06 23.26 24.02L21.26 22.91C21.1 22.82 21 22.65 21 22.47V20.03C21 19.85 21.1 19.68 21.26 19.59L23.26 18.48C23.41 18.4 23.59 18.4 23.75 18.48L25.75 19.59C25.9 19.68 26 19.85 26 20.03V22.47C26 22.65 25.9 22.82 25.74 22.91L23.74 24.02C23.67 24.06 23.58 24.08 23.5 24.08ZM22 22.18L23.5 23.01L25 22.18V20.33L23.5 19.5L22 20.32V22.18Z" fill="#1E1E1E"/>
<path d="M2.5 24.08C2.42 24.08 2.33 24.06 2.26 24.02L0.26 22.91C0.1 22.82 0 22.65 0 22.47V20.03C0 19.85 0.1 19.68 0.26 19.59L2.26 18.48C2.41 18.4 2.59 18.4 2.75 18.48L4.75 19.59C4.9 19.68 5 19.85 5 20.03V22.47C5 22.65 4.9 22.82 4.74 22.91L2.74 24.02C2.67 24.06 2.58 24.08 2.5 24.08ZM1 22.18L2.5 23.01L4 22.18V20.33L2.5 19.5L1 20.32V22.18Z" fill="#1E1E1E"/>
<path d="M13 5.67C12.92 5.67 12.83 5.65 12.76 5.61L10.76 4.5C10.6 4.41 10.5 4.24 10.5 4.06V1.61C10.5 1.43 10.6 1.26 10.76 1.17L12.76 0.06C12.91 -0.02 13.09 -0.02 13.25 0.06L15.25 1.17C15.41 1.26 15.51 1.43 15.51 1.61V4.06C15.51 4.24 15.41 4.41 15.25 4.5L13.25 5.61C13.17 5.65 13.08 5.67 13 5.67ZM11.5 3.77L13 4.6L14.5 3.77V1.9L13 1.07L11.5 1.9V3.77Z" fill="#1E1E1E"/>
<path d="M23.5 11.08C23.42 11.08 23.33 11.06 23.26 11.02L21.26 9.91004C21.1 9.82004 21 9.65004 21 9.47004V7.03004C21 6.85004 21.1 6.68004 21.26 6.59004L23.26 5.48004C23.41 5.40004 23.59 5.40004 23.75 5.48004L25.75 6.59004C25.9 6.68004 26 6.85004 26 7.03004V9.47004C26 9.65004 25.9 9.82004 25.74 9.91004L23.74 11.02C23.67 11.06 23.58 11.08 23.5 11.08ZM22 9.18004L23.5 10.01L25 9.18004V7.32004L23.5 6.49004L22 7.32004V9.18004Z" fill="#1E1E1E"/>
<path d="M2.5 11.08C2.42 11.08 2.33 11.06 2.26 11.02L0.26 9.91004C0.1 9.82004 0 9.65004 0 9.47004V7.03004C0 6.85004 0.1 6.68004 0.26 6.59004L2.26 5.48004C2.41 5.40004 2.59 5.40004 2.75 5.48004L4.75 6.59004C4.9 6.68004 5 6.85004 5 7.03004V9.47004C5 9.65004 4.9 9.82004 4.74 9.91004L2.74 11.02C2.67 11.06 2.58 11.08 2.5 11.08ZM1 9.18004L2.5 10.01L4 9.18004V7.32004L2.5 6.49004L1 7.32004V9.18004Z" fill="#1E1E1E"/>
<path d="M23.5 19.42C23.22 19.42 23 19.2 23 18.92V10.58C23 10.3 23.22 10.08 23.5 10.08C23.78 10.08 24 10.3 24 10.58V18.92C24 19.2 23.78 19.42 23.5 19.42Z" fill="#1E1E1E"/>
<path d="M15 26.64C14.82 26.64 14.65 26.55 14.56 26.38C14.43 26.14 14.51 25.83 14.75 25.7L21.3 22.06C21.54 21.93 21.85 22.01 21.98 22.25C22.11 22.49 22.03 22.8 21.79 22.93L15.24 26.57C15.17 26.62 15.08 26.64 15 26.64Z" fill="#1E1E1E"/>
<path d="M11 26.64C10.92 26.64 10.83 26.62 10.76 26.58L4.20998 22.94C3.96998 22.81 3.87998 22.5 4.01998 22.26C4.14998 22.02 4.45998 21.93 4.69998 22.07L11.25 25.71C11.49 25.84 11.58 26.15 11.44 26.39C11.35 26.55 11.18 26.64 11 26.64Z" fill="#1E1E1E"/>
<path d="M2.5 19.42C2.22 19.42 2 19.2 2 18.92V10.58C2 10.3 2.22 10.08 2.5 10.08C2.78 10.08 3 10.3 3 10.58V18.92C3 19.2 2.78 19.42 2.5 19.42Z" fill="#1E1E1E"/>
<path d="M4.50005 7.97002C4.32005 7.97002 4.15005 7.88002 4.06005 7.71002C3.93005 7.47002 4.02005 7.17002 4.26005 7.04002L10.76 3.43002C11 3.29002 11.3 3.38002 11.44 3.62002C11.57 3.86002 11.49 4.17002 11.25 4.30002L4.75005 7.91002C4.67005 7.95002 4.58005 7.97002 4.50005 7.97002Z" fill="#1E1E1E"/>
<path d="M21.5 7.97003C21.42 7.97003 21.33 7.95003 21.26 7.91003L14.76 4.30003C14.52 4.17003 14.43 3.86003 14.57 3.62003C14.7 3.38003 15 3.29003 15.24 3.42003L21.74 7.03003C21.98 7.16003 22.07 7.47003 21.93 7.71003C21.85 7.88003 21.68 7.97003 21.5 7.97003Z" fill="#1E1E1E"/>
<path d="M17.5 12.3001C17.42 12.3001 17.33 12.2801 17.26 12.2401L13 9.87006L8.73997 12.2401C8.49997 12.3701 8.18998 12.2901 8.05998 12.0501C7.92998 11.8101 8.00997 11.5001 8.24997 11.3701L12.75 8.87006C12.9 8.79006 13.08 8.79006 13.24 8.87006L17.74 11.3701C17.98 11.5001 18.07 11.8101 17.93 12.0501C17.85 12.2101 17.68 12.3001 17.5 12.3001Z" fill="#1E1E1E"/>
<path d="M13 20.3C12.82 20.3 12.65 20.21 12.56 20.04C12.43 19.8 12.51 19.49 12.75 19.36L17 17.01V12.65L13.24 14.74C13 14.87 12.69 14.79 12.56 14.55C12.43 14.31 12.51 14 12.75 13.87L17.25 11.37C17.4 11.28 17.59 11.29 17.75 11.38C17.91 11.47 18 11.62 18 11.8V17.3C18 17.48 17.9 17.65 17.74 17.74L13.24 20.24C13.17 20.28 13.08 20.3 13 20.3Z" fill="#1E1E1E"/>
<path d="M13 20.3C12.92 20.3 12.83 20.28 12.76 20.24L8.26 17.74C8.1 17.65 8 17.48 8 17.3V11.8C8 11.62 8.09 11.46 8.25 11.37C8.4 11.28 8.59 11.28 8.75 11.36L13.25 13.86C13.41 13.95 13.51 14.12 13.51 14.3V19.8C13.51 19.98 13.42 20.14 13.26 20.23C13.18 20.28 13.09 20.3 13 20.3ZM9 17.01L12.5 18.95V14.59L9 12.65V17.01Z" fill="#1E1E1E"/>
<path d="M13 25.17C12.72 25.17 12.5 24.95 12.5 24.67V21.5C12.5 21.22 12.72 21 13 21C13.28 21 13.5 21.22 13.5 21.5V24.67C13.5 24.94 13.28 25.17 13 25.17Z" fill="#1E1E1E"/>
<path d="M19 11.53C18.83 11.53 18.67 11.45 18.58 11.3C18.43 11.07 18.5 10.76 18.74 10.61L21.2 9.06001C21.43 8.91001 21.74 8.98001 21.89 9.22001C22.04 9.45001 21.97 9.76001 21.73 9.91001L19.27 11.46C19.18 11.5 19.09 11.53 19 11.53Z" fill="#1E1E1E"/>
<path d="M6.96002 11.53C6.87002 11.53 6.78002 11.5 6.69002 11.45L4.23002 9.9C4.00002 9.75 3.93002 9.44 4.07002 9.21C4.22002 8.98 4.53002 8.91 4.76002 9.05L7.22002 10.6C7.45002 10.75 7.52002 11.06 7.38002 11.29C7.29002 11.45 7.13002 11.53 6.96002 11.53Z" fill="#1E1E1E"/>
<path d="M21.46 20.53C21.37 20.53 21.28 20.5 21.19 20.45L18.73 18.9C18.5 18.75 18.43 18.44 18.57 18.21C18.72 17.98 19.03 17.91 19.26 18.05L21.72 19.6C21.95 19.75 22.02 20.06 21.88 20.29C21.79 20.45 21.63 20.53 21.46 20.53Z" fill="#1E1E1E"/>
<path d="M4.5 20.53C4.33 20.53 4.17 20.45 4.08 20.3C3.93 20.06 4 19.75 4.23 19.6L6.69 18.05C6.92 17.9 7.23 17.97 7.38 18.21C7.53 18.44 7.46 18.75 7.22 18.9L4.76 20.45C4.68 20.5 4.59 20.53 4.5 20.53Z" fill="#1E1E1E"/>
<path d="M13 8C12.72 8 12.5 7.78 12.5 7.5V5.5C12.5 5.22 12.72 5 13 5C13.28 5 13.5 5.22 13.5 5.5V7.5C13.5 7.78 13.28 8 13 8Z" fill="#1E1E1E"/>
</svg>
