<svg width="38" height="24" viewBox="0 0 38 24" fill="none" xmlns="http://www.w3.org/2000/svg">
<path d="M36.7188 2.15625H5.875V1.5C5.875 1.32595 5.80586 1.15903 5.68279 1.03596C5.55972 0.912891 5.3928 0.84375 5.21875 0.84375H1.28125C1.1072 0.84375 0.940282 0.912891 0.817211 1.03596C0.694141 1.15903 0.625 1.32595 0.625 1.5C0.625 1.67405 0.694141 1.84097 0.817211 1.96404C0.940282 2.08711 1.1072 2.15625 1.28125 2.15625H4.5625V4.125H2.59375C2.4197 4.125 2.25278 4.19414 2.12971 4.31721C2.00664 4.44028 1.9375 4.6072 1.9375 4.78125V10.0312C1.9375 10.2053 2.00664 10.3722 2.12971 10.4953C2.25278 10.6184 2.4197 10.6875 2.59375 10.6875H4.5625V12H2.59375C2.4197 12 2.25278 12.0691 2.12971 12.1922C2.00664 12.3153 1.9375 12.4822 1.9375 12.6562V17.9062C1.9375 18.0803 2.00664 18.2472 2.12971 18.3703C2.25278 18.4934 2.4197 18.5625 2.59375 18.5625H4.5625V22.5C4.5625 22.674 4.63164 22.841 4.75471 22.964C4.87778 23.0871 5.0447 23.1562 5.21875 23.1562C5.3928 23.1562 5.55972 23.0871 5.68279 22.964C5.80586 22.841 5.875 22.674 5.875 22.5V20.5312H7.1875V22.5C7.1875 22.674 7.25664 22.841 7.37971 22.964C7.50278 23.0871 7.6697 23.1562 7.84375 23.1562H18.3438C18.5178 23.1562 18.6847 23.0871 18.8078 22.964C18.9309 22.841 19 22.674 19 22.5V20.5312H20.3125V22.5C20.3125 22.674 20.3816 22.841 20.5047 22.964C20.6278 23.0871 20.7947 23.1562 20.9688 23.1562H26.2188C26.3928 23.1562 26.5597 23.0871 26.6828 22.964C26.8059 22.841 26.875 22.674 26.875 22.5V20.5312H36.7188C36.8928 20.5312 37.0597 20.4621 37.1828 20.339C37.3059 20.216 37.375 20.049 37.375 19.875V2.8125C37.375 2.63845 37.3059 2.47153 37.1828 2.34846C37.0597 2.22539 36.8928 2.15625 36.7188 2.15625ZM3.25 9.375V5.4375H4.5625V9.375H3.25ZM3.25 17.25V13.3125H4.5625V17.25H3.25ZM8.5 20.5312H9.8125V21.8438H8.5V20.5312ZM11.125 20.5312H12.4375V21.8438H11.125V20.5312ZM13.75 20.5312H15.0625V21.8438H13.75V20.5312ZM17.6875 21.8438H16.375V20.5312H17.6875V21.8438ZM21.625 20.5312H22.9375V21.8438H21.625V20.5312ZM25.5625 21.8438H24.25V20.5312H25.5625V21.8438ZM36.0625 19.2188H5.875V3.46875H36.0625V19.2188Z" fill="black"/>
<path d="M28.1875 17.9063C29.4854 17.9063 30.7542 17.5214 31.8334 16.8003C32.9126 16.0792 33.7538 15.0543 34.2505 13.8551C34.7472 12.656 34.8771 11.3365 34.6239 10.0635C34.3707 8.79047 33.7457 7.62115 32.8279 6.70337C31.9101 5.78558 30.7408 5.16057 29.4678 4.90735C28.1948 4.65413 26.8753 4.78409 25.6761 5.28079C24.477 5.77749 23.4521 6.61863 22.731 7.69782C22.0099 8.77702 21.625 10.0458 21.625 11.3438C21.625 12.2056 21.7947 13.0589 22.1245 13.8551C22.4543 14.6513 22.9377 15.3748 23.5471 15.9841C24.7778 17.2148 26.447 17.9063 28.1875 17.9063ZM23.8234 14.2575L26.7241 12.8072L25.2738 15.7078C24.7028 15.3206 24.2107 14.8284 23.8234 14.2575ZM28.1875 16.5938C27.5949 16.592 27.0069 16.4899 26.4484 16.2919L27.9512 13.3125C28.1068 13.3475 28.2682 13.3475 28.4238 13.3125L29.9266 16.3181C29.3665 16.5073 28.7786 16.6004 28.1875 16.5938ZM27.5312 11.3438C27.5312 11.214 27.5697 11.0871 27.6418 10.9792C27.714 10.8712 27.8165 10.7871 27.9364 10.7375C28.0563 10.6878 28.1882 10.6748 28.3155 10.7001C28.4428 10.7254 28.5598 10.7879 28.6515 10.8797C28.7433 10.9715 28.8058 11.0884 28.8311 11.2157C28.8565 11.343 28.8435 11.475 28.7938 11.5949C28.7441 11.7148 28.66 11.8173 28.5521 11.8894C28.4442 11.9615 28.3173 12 28.1875 12C28.0135 12 27.8465 11.9309 27.7235 11.8078C27.6004 11.6847 27.5312 11.5178 27.5312 11.3438ZM31.1012 15.7078L29.6509 12.8072L32.5516 14.2575C32.1643 14.8284 31.6722 15.3206 31.1012 15.7078ZM33.1356 9.60469C33.5383 10.7291 33.5383 11.9584 33.1356 13.0828L30.1562 11.58C30.1912 11.4244 30.1912 11.2631 30.1562 11.1075L33.1356 9.60469ZM32.5516 8.43L29.6509 9.88032L31.1012 6.97969C31.6722 7.36693 32.1643 7.85909 32.5516 8.43ZM28.1875 6.09375C28.7801 6.09551 29.3681 6.19758 29.9266 6.39563L28.4238 9.375C28.2682 9.34 28.1068 9.34 27.9512 9.375L26.4484 6.36938C27.0085 6.18026 27.5964 6.08707 28.1875 6.09375ZM25.2738 6.97969L26.7241 9.88032L23.8234 8.43C24.2107 7.85909 24.7028 7.36693 25.2738 6.97969ZM22.9375 11.3438C22.9393 10.7512 23.0413 10.1632 23.2394 9.60469L26.2188 11.1075C26.1838 11.2631 26.1838 11.4244 26.2188 11.58L23.2131 13.0828C23.024 12.5228 22.9308 11.9348 22.9375 11.3438Z" fill="black"/>
<path d="M13.75 17.9063C15.0479 17.9063 16.3167 17.5214 17.3959 16.8003C18.4751 16.0792 19.3163 15.0543 19.813 13.8551C20.3097 12.656 20.4396 11.3365 20.1864 10.0635C19.9332 8.79047 19.3082 7.62115 18.3904 6.70337C17.4726 5.78558 16.3033 5.16057 15.0303 4.90735C13.7573 4.65413 12.4378 4.78409 11.2386 5.28079C10.0395 5.77749 9.01458 6.61863 8.29348 7.69782C7.57238 8.77702 7.1875 10.0458 7.1875 11.3438C7.1875 12.2056 7.35724 13.0589 7.68704 13.8551C8.01684 14.6513 8.50023 15.3748 9.10961 15.9841C10.3403 17.2148 12.0095 17.9063 13.75 17.9063ZM9.38594 14.2575L12.2866 12.8072L10.8362 15.7078C10.2653 15.3206 9.77317 14.8284 9.38594 14.2575ZM13.75 16.5938C13.1574 16.592 12.5694 16.4899 12.0109 16.2919L13.5137 13.3125C13.6693 13.3475 13.8307 13.3475 13.9863 13.3125L15.4891 16.3181C14.929 16.5073 14.3411 16.6004 13.75 16.5938ZM13.0938 11.3438C13.0938 11.214 13.1322 11.0871 13.2043 10.9792C13.2765 10.8712 13.379 10.7871 13.4989 10.7375C13.6188 10.6878 13.7507 10.6748 13.878 10.7001C14.0053 10.7254 14.1223 10.7879 14.214 10.8797C14.3058 10.9715 14.3683 11.0884 14.3936 11.2157C14.419 11.343 14.406 11.475 14.3563 11.5949C14.3066 11.7148 14.2225 11.8173 14.1146 11.8894C14.0067 11.9615 13.8798 12 13.75 12C13.576 12 13.409 11.9309 13.286 11.8078C13.1629 11.6847 13.0938 11.5178 13.0938 11.3438ZM16.6638 15.7078L15.2134 12.8072L18.1141 14.2575C17.7268 14.8284 17.2347 15.3206 16.6638 15.7078ZM18.6981 9.60469C19.1008 10.7291 19.1008 11.9584 18.6981 13.0828L15.7188 11.58C15.7537 11.4244 15.7537 11.2631 15.7188 11.1075L18.6981 9.60469ZM18.1141 8.43L15.2134 9.88032L16.6638 6.97969C17.2347 7.36693 17.7268 7.85909 18.1141 8.43ZM13.75 6.09375C14.3426 6.09551 14.9306 6.19758 15.4891 6.39563L13.9863 9.375C13.8307 9.34 13.6693 9.34 13.5137 9.375L12.0109 6.36938C12.571 6.18026 13.1589 6.08707 13.75 6.09375ZM10.8362 6.97969L12.2866 9.88032L9.38594 8.43C9.77317 7.85909 10.2653 7.36693 10.8362 6.97969ZM8.5 11.3438C8.50176 10.7512 8.60383 10.1632 8.80187 9.60469L11.7812 11.1075C11.7463 11.2631 11.7463 11.4244 11.7812 11.58L8.77562 13.0828C8.5865 12.5228 8.49332 11.9348 8.5 11.3438Z" fill="black"/>
</svg>
