<svg width="32" height="32" viewBox="0 0 32 32" fill="none" xmlns="http://www.w3.org/2000/svg">
<path d="M31.4627 26.8463C30.8955 26.4527 30.1167 26.5933 29.723 27.1604C28.139 29.4422 23.5284 29.4436 21.9435 27.1604C21.7099 26.8238 21.3263 26.6231 20.9166 26.6231C20.507 26.6231 20.1233 26.8238 19.8898 27.1603C18.3057 29.4422 13.6951 29.4436 12.1102 27.1603C11.8766 26.8238 11.493 26.6231 11.0833 26.6231C10.6736 26.6231 10.29 26.8239 10.0565 27.1604C8.47241 29.4424 3.86187 29.4436 2.27694 27.1604C1.88326 26.5932 1.10433 26.4527 0.53733 26.8463C-0.0297915 27.2399 -0.170416 28.0187 0.22327 28.5858C2.51813 31.8918 8.06604 32.2497 11.0833 29.7077C13.7368 31.943 18.2943 31.9169 20.9166 29.7077C23.9331 32.249 29.4838 31.8888 31.7766 28.5858C32.1703 28.0187 32.0296 27.2399 31.4627 26.8463Z" fill="black"/>
<path d="M6.12499 19.7486C6.81536 19.7486 7.37499 19.189 7.37499 18.4987V16.6238H18.6249V18.4987C18.6249 19.189 19.1845 19.7486 19.8748 19.7486C20.5652 19.7486 21.1248 19.189 21.1248 18.4987V4.87472C21.1248 3.90986 21.9098 3.12486 22.8748 3.12486C23.8398 3.12486 24.6248 3.90986 24.6248 4.87472C24.6248 5.56503 25.1844 6.12466 25.8748 6.12466C26.5652 6.12466 27.1248 5.56503 27.1248 4.87472C27.1248 2.53143 25.2183 0.625 22.8749 0.625C20.5315 0.625 18.6249 2.53143 18.6249 4.87472V8.49945H7.37499V4.87472C7.37499 3.90986 8.15998 3.12486 9.12498 3.12486C10.09 3.12486 10.875 3.90986 10.875 4.87472C10.875 5.56503 11.4346 6.12466 12.125 6.12466C12.8153 6.12466 13.375 5.56503 13.375 4.87472C13.3749 2.53143 11.4684 0.625 9.12498 0.625C6.78155 0.625 4.875 2.53143 4.875 4.87472V18.4988C4.875 19.189 5.43462 19.7486 6.12499 19.7486ZM7.37499 10.9993H18.6249V14.124H7.37499V10.9993Z" fill="black"/>
<path d="M11.0835 24.0832C12.3419 25.1434 14.0873 25.7483 16.0001 25.7483C17.9129 25.7483 19.6582 25.1434 20.9167 24.0832C23.9332 26.6245 29.4839 26.2643 31.7767 22.9613C32.1704 22.3942 32.0298 21.6154 31.4627 21.2217C30.8955 20.8282 30.1167 20.9687 29.723 21.5359C28.139 23.8177 23.5284 23.819 21.9435 21.5359C21.7099 21.1993 21.3263 20.9986 20.9166 20.9986C20.507 20.9986 20.1233 21.1993 19.8898 21.5358C18.3057 23.8177 13.6951 23.819 12.1102 21.5358C11.8766 21.1993 11.493 20.9986 11.0833 20.9986C10.6736 20.9986 10.29 21.1994 10.0565 21.5359C8.47241 23.8179 3.86187 23.819 2.27694 21.5359C1.88326 20.9687 1.10433 20.8282 0.53733 21.2217C-0.0297915 21.6154 -0.170416 22.3942 0.22327 22.9613C2.51813 26.2673 8.06604 26.6252 11.0835 24.0832Z" fill="black"/>
</svg>
