<svg width="32" height="30" viewBox="0 0 32 30" fill="none" xmlns="http://www.w3.org/2000/svg">
<path d="M28.8467 4.66642C28.6742 2.44044 26.8092 0.68161 24.5398 0.68161H4.32137C1.93856 0.68161 0 2.62017 0 5.00299V24.997C0 27.3798 1.93856 29.3184 4.32137 29.3184H27.6787C30.0615 29.3184 32.0001 27.3798 32.0001 24.997V8.82605C32 6.84805 30.6637 5.17742 28.8467 4.66642ZM4.32137 2.70035H24.5399C25.6384 2.70035 26.5591 3.47385 26.7875 4.50473H4.32137C3.47533 4.50473 2.68594 4.75007 2.01874 5.17199V5.00299C2.01874 3.73332 3.05171 2.70035 4.32137 2.70035ZM27.6786 27.2996H4.32137C3.05171 27.2996 2.01874 26.2667 2.01874 24.997V8.82605C2.01874 7.55638 3.05171 6.52342 4.32137 6.52342H27.6787C28.9484 6.52342 29.9813 7.55638 29.9813 8.82605V12.3486H23.5449C20.9944 12.3486 18.9194 14.4237 18.9194 16.9743C18.9194 19.5248 20.9944 21.5999 23.5449 21.5999H29.9813V24.997C29.9813 26.2667 28.9483 27.2996 27.6786 27.2996ZM29.9813 19.5812H23.5449C22.1075 19.5812 20.9381 18.4117 20.9381 16.9743C20.9381 15.5368 22.1075 14.3674 23.5449 14.3674H29.9813V19.5812Z" fill="black"/>
</svg>
