<svg width="107" height="84" viewBox="0 0 107 84" fill="none" xmlns="http://www.w3.org/2000/svg">
<path d="M0.641453 0.252846C0.810015 0.75853 29.3813 36.7746 29.5498 36.7184C30.0555 36.5498 36.1799 28.7679 35.9833 28.515C35.8709 28.3465 32.7244 24.301 29.016 19.497C25.2796 14.6649 22.2174 10.6475 22.2174 10.5632C22.2174 10.4789 25.111 10.3946 28.6789 10.3946H35.1124L41.1525 17.8957L47.1926 25.4248L46.2655 26.5485C42.1077 31.6334 0.585266 83.7472 0.585266 83.8595C0.585266 83.9438 9.54714 84 20.4756 84H40.3659L44.9732 78.2689C47.5017 75.1505 49.5244 72.4535 49.4963 72.313C49.3839 71.9759 43.1752 64.3625 43.0067 64.3625C42.9224 64.3625 41.1244 66.4415 38.9893 68.998L35.1124 73.6054H28.6508C24.6896 73.6054 22.2174 73.493 22.2736 73.3525C22.3297 73.1839 30.505 62.7893 40.4782 50.2595C50.4515 37.7017 58.9358 26.9418 59.3853 26.3799L60.1438 25.3405L50.2548 12.6702L40.3378 0H20.4475C8.87289 0 0.585266 0.112373 0.641453 0.252846Z" fill="#EBBE5A"/>
<path d="M62.4194 5.67492C59.891 8.8214 57.8401 11.4903 57.8401 11.6027C57.8682 11.8836 64.1612 19.6375 64.3579 19.6375C64.4421 19.6375 66.2401 17.5585 68.3753 15.002L72.2522 10.3946H78.7137C82.703 10.3946 85.1472 10.507 85.091 10.6756C85.0629 10.8161 76.5505 21.6883 66.1839 34.8361C55.8455 47.9839 47.3612 58.8562 47.3612 58.9967C47.3612 59.109 51.7719 64.7839 57.194 71.6107L67.0268 84H86.9171C98.4916 84 106.779 83.8876 106.723 83.7472C106.555 83.2415 77.9833 47.2254 77.8147 47.2816C77.309 47.4502 71.1846 55.2321 71.3813 55.4849C71.4936 55.6254 74.6401 59.699 78.3485 64.503C82.085 69.3351 85.1472 73.3525 85.1472 73.4368C85.1472 73.5211 82.2535 73.6054 78.7137 73.6054H72.2522L66.3525 66.4415C63.0936 62.5084 60.4248 59.1371 60.4248 58.9686C60.4248 58.8281 70.8475 45.5398 83.602 29.4983C96.3565 13.4288 106.779 0.224747 106.779 0.140472C106.779 0.0561905 97.8174 0 86.889 0H66.9987L62.4194 5.67492Z" fill="white"/>
</svg>
