<svg width="31" height="22" viewBox="0 0 31 22" fill="none" xmlns="http://www.w3.org/2000/svg">
<path d="M27.1341 12.0792L30.1297 11.4093L31 9.41292L29.8399 9.12779L26.8049 6.98369L24.4936 3.07942L23.5231 3.36769L22.5884 0.57116L20.3572 2.34122L20.6356 0.746729L16.6021 0L17.9289 1.18363L13.0868 0.57116L14.9434 1.9133L9.98488 1.96673L12.2827 3.17775L7.92915 4.15573L10.1963 4.7444L7.46775 5.6447L7.38546 5.64874L7.32154 5.69319L5.38795 6.33126L6.1768 6.48887L4.32857 7.77308L4.33076 7.76051L2.47816 8.96704L1.59958 10.9773L0 11.8143L0.277978 12.6064L2.34946 12.0222L3.51128 13.2202L3.59226 16.6108L0.507364 22H3.26L7.31979 18.0917L12.6259 16.177L18.0616 13.4025L23.6469 14.7738L24.733 17.0746L27.4734 15.7424L26.1382 13.3042L22.7942 10.9872L23.4241 10.6657L27.1346 12.0797L27.1341 12.0792ZM25.2041 6.05331L25.6436 7.19698L23.9582 6.41208L25.2045 6.05331H25.2041Z" fill="#FDB913"/>
</svg>
