<!DOCTYPE svg PUBLIC "-//W3C//DTD SVG 1.1//EN" "http://www.w3.org/Graphics/SVG/1.1/DTD/svg11.dtd">

<!-- Uploaded to: SVG Repo, www.svgrepo.com, Transformed by: SVG Repo Mixer Tools -->
<svg fill="#1e274d" version="1.1" id="Capa_1" xmlns="http://www.w3.org/2000/svg" xmlns:xlink="http://www.w3.org/1999/xlink" width="800px" height="800px" viewBox="0 0 188.554 188.555" xml:space="preserve" stroke="#1e274d">

<g id="SVGRepo_bgCarrier" stroke-width="0"/>

<g id="SVGRepo_tracerCarrier" stroke-linecap="round" stroke-linejoin="round"/>

<g id="SVGRepo_iconCarrier"> <g> <path d="M182.595,4.035c-0.111-2.044-1.751-4.216-4.023-4.023c-24.176,2.042-51.571,7.261-73.6,19.23 c-1.18-0.603-2.641-0.572-3.827,0.659c-0.443,0.46-0.87,0.923-1.284,1.391c-1.127-0.513-2.483-0.508-3.478,0.511 c-17.106,17.54-33.77,35.574-50.225,53.729c-11.059,12.2-23.774,24.312-33.545,37.567c-6.664,9.041-10.545,16.933-4.606,27.25 c7.554,13.123,22.947,22.152,34.412,31.49c24.51,19.962,45.63,24.532,67.902-0.089c12.856-14.213,23.432-30.831,35.237-45.917 c10.779-13.772,22.144-27.555,30.464-43.012c0.377-0.108,0.728-0.311,1.004-0.648c1.653-2.013,1.403-5.49,1.694-7.978 c0.3-2.556,0.571-5.122,0.775-7.693C184.885,46.995,183.556,21.776,182.595,4.035z M90.915,178.248 c-2.538,1.718-5.154,2.706-7.804,3.161c0.111-0.258,0.172-0.523,0.251-0.786c4.361-0.426,8.488-2.592,12.152-7.33 c0.234,0.291,0.481,0.571,0.762,0.808C94.566,175.566,92.8,176.971,90.915,178.248z M94.542,34.166 c1.156-1.449,2.335-2.89,3.475-4.346c0.349,0.306,0.758,0.529,1.188,0.689C97.654,31.664,96.091,32.896,94.542,34.166z M136.319,51.81c-6.918-4.022-9.232-15.62-2.216-20.383c6.368-4.319,16.146-3.63,22.776-0.331c0.151,0.25,0.336,0.497,0.559,0.735 C169.13,44.307,148.113,58.666,136.319,51.81z"/> </g> </g>

</svg>