<svg width="49" height="38" viewBox="0 0 49 38" fill="none" xmlns="http://www.w3.org/2000/svg">
<path d="M41.0014 3.56112C37.8298 2.10908 34.4816 1.07896 31.0423 0.49707C30.5716 1.3384 30.1458 2.20402 29.7665 3.09031C26.103 2.53826 22.3775 2.53826 18.7139 3.09031C18.3345 2.20412 17.9087 1.33851 17.4382 0.49707C13.9967 1.08388 10.6463 2.11644 7.47152 3.56871C1.16878 12.8937 -0.539798 21.9872 0.31449 30.9515C4.00553 33.6786 8.13687 35.7526 12.5289 37.0834C13.5179 35.7533 14.393 34.3422 15.1449 32.8651C13.7167 32.3316 12.3382 31.6735 11.0254 30.8983C11.3709 30.6477 11.7088 30.3895 12.0353 30.139C15.8553 31.9354 20.0246 32.8668 24.2459 32.8668C28.4673 32.8668 32.6366 31.9354 36.4566 30.139C36.7869 30.4085 37.1248 30.6667 37.4665 30.8983C36.1512 31.6748 34.7701 32.3342 33.3394 32.8689C34.0904 34.3453 34.9655 35.7552 35.9554 37.0834C40.3512 35.7579 44.4857 33.6849 48.1774 30.9553C49.1797 20.5595 46.465 11.5497 41.0014 3.56112ZM16.227 25.4385C13.8464 25.4385 11.8796 23.2781 11.8796 20.6203C11.8796 17.9625 13.7781 15.7831 16.2194 15.7831C18.6608 15.7831 20.6124 17.9625 20.5706 20.6203C20.5288 23.2781 18.6532 25.4385 16.227 25.4385ZM32.2648 25.4385C29.8804 25.4385 27.9213 23.2781 27.9213 20.6203C27.9213 17.9625 29.8197 15.7831 32.2648 15.7831C34.71 15.7831 36.6464 17.9625 36.6046 20.6203C36.5629 23.2781 34.691 25.4385 32.2648 25.4385Z" fill="#F0F0EF"/>
</svg>
