<svg width="49" height="48" viewBox="0 0 49 48" fill="none" xmlns="http://www.w3.org/2000/svg">
<path fill-rule="evenodd" clip-rule="evenodd" d="M24.1365 0C10.8011 0 0 10.8011 0 24.1365C0 34.8169 6.90907 43.8379 16.5033 47.036C17.7101 47.2471 18.1627 46.5231 18.1627 45.8895C18.1627 45.3162 18.1325 43.4155 18.1325 41.3941C12.0682 42.5104 10.4994 39.9157 10.0166 38.558C9.7451 37.8641 8.56845 35.722 7.54265 35.1487C6.69787 34.6962 5.49105 33.5799 7.51248 33.5497C9.41323 33.5195 10.7709 35.2996 11.2235 36.0237C13.3957 39.6743 16.8654 38.6485 18.2532 38.0149C18.4644 36.4461 19.098 35.3901 19.7919 34.7867C14.4215 34.1833 8.80981 32.1015 8.80981 22.8693C8.80981 20.2445 9.7451 18.0722 11.2838 16.3826C11.0424 15.7792 10.1977 13.3052 11.5252 9.98647C11.5252 9.98647 13.5466 9.35288 18.1627 12.4605C20.0936 11.9174 22.1452 11.6458 24.1968 11.6458C26.2484 11.6458 28.3 11.9174 30.2309 12.4605C34.847 9.32271 36.8685 9.98647 36.8685 9.98647C38.196 13.3052 37.3512 15.7792 37.1098 16.3826C38.6485 18.0722 39.5838 20.2143 39.5838 22.8693C39.5838 32.1317 33.9419 34.1833 28.5716 34.7867C29.4465 35.541 30.2008 36.9891 30.2008 39.2519C30.2008 42.4802 30.1706 45.0749 30.1706 45.8895C30.1706 46.5231 30.6232 47.2773 31.83 47.036C41.3639 43.8379 48.2729 34.7867 48.2729 24.1365C48.2729 10.8011 37.4719 0 24.1365 0Z" fill="#F0F0EF"/>
</svg>
