<svg width="49" height="40" viewBox="0 0 49 40" fill="none" xmlns="http://www.w3.org/2000/svg">
<path d="M48.6014 5.16574C46.8254 5.9542 44.9166 6.4852 42.9133 6.72456C44.9588 5.49963 46.5297 3.55866 47.2679 1.24558C45.3551 2.37999 43.2351 3.20466 40.9783 3.64917C39.1741 1.72429 36.5976 0.521484 33.7495 0.521484C27.3553 0.521484 22.6567 6.48722 24.1009 12.6802C15.8724 12.2679 8.57512 8.32561 3.6895 2.33373C1.09482 6.7849 2.34389 12.6078 6.75282 15.5565C5.13165 15.5042 3.60301 15.0597 2.26947 14.3175C2.16085 18.9054 5.44945 23.1977 10.2124 24.1531C8.8185 24.5312 7.29186 24.6197 5.73908 24.3221C6.9982 28.2563 10.6549 31.1185 14.9914 31.1989C10.8279 34.4634 5.5822 35.9216 0.328491 35.3021C4.71127 38.112 9.91872 39.7513 15.5103 39.7513C33.8983 39.7513 44.287 24.2215 43.6595 10.2927C45.5944 8.89483 47.2739 7.15097 48.6014 5.16574Z" fill="#F0F0EF"/>
</svg>
